#!OML:ASF H:\MichaelJackson\Top Level 1\Subject 1\Session 1\male.ASF
:FULLY-SPECIFIED
:DEGREES
515
root 3.1358 15.9257 14.8795 -345.688 -7.0224 -6.96351
lowerback 3.66617 3.0675 3.58258
upperback 0.755812 4.22819 0.664993
thorax -1.06586 2.10112 -1.50215
lowerneck -6.34949 -1.73918 3.73165
upperneck -0.191499 -2.59877 0.347291
head 0.955109 -1.29112 -0.584169
rclavicle -1.59028e-015 7.7526e-015
rhumerus -49.5992 6.39949 -95.03
rradius 43.4302
rwrist 6.3094
rhand -30.4369 -24.0413
rfingers 7.12502
rthumb -3.73939 -413.988
lclavicle -1.59028e-015 7.7526e-015
lhumerus -65.5491 -20.2906 98.987
lradius 71.9427
lwrist 24.1785
lhand -17.838 6.71725
lfingers 7.12502
lthumb 8.4267 36.5291
rfemur 4.02123 -6.17874 17.8655
rtibia 27.1265
rfoot -10.7847 -28.7181
rtoes -42.3975
lfemur -55.1384 10.748 -9.53435
ltibia 41.6468
lfoot -9.90082 2.80797
ltoes 8.08753
516
root 3.19308 15.9352 15.0799 -345.811 -6.64623 -6.40671
lowerback 3.55045 3.05915 3.39504
upperback 0.62192 4.20664 0.47651
thorax -1.13924 2.08842 -1.58803
lowerneck -6.35123 -1.87491 3.62109
upperneck 0.0921103 -2.77835 0.490672
head 1.04485 -1.37402 -0.52887
rclavicle 9.39258e-015 -4.17448e-015
rhumerus -50.153 6.34273 -95.0311
rradius 44.0286
rwrist 6.56182
rhand -29.9946 -23.1884
rfingers 7.12502
rthumb -3.3122 -413.142
lclavicle 9.39258e-015 -4.17448e-015
lhumerus -65.5226 -20.2072 99.0845
lradius 71.8103
lwrist 23.5963
lhand -18.9107 6.4062
lfingers 7.12502
lthumb 7.39137 36.2571
rfemur 3.69114 -6.63775 16.9565
rtibia 28.7619
rfoot -8.50536 -28.3732
rtoes -43.1737
lfemur -54.6213 10.0321 -10.1398
ltibia 41.8955
lfoot -9.6415 2.4517
ltoes 7.27646
517
root 3.25263 15.9466 15.278 -345.95 -6.25846 -5.81372
lowerback 3.50102 3.05319 3.15931
upperback 0.500808 4.18867 0.291667
thorax -1.24003 2.07743 -1.64723
lowerneck -6.35215 -2.0262 3.4679
upperneck 0.353639 -2.97637 0.663175
head 1.12889 -1.46596 -0.457872
rclavicle 8.30423e-014 -4.17448e-015
rhumerus -50.5734 6.09274 -94.8829
rradius 44.5539
rwrist 6.98268
rhand -29.4907 -22.0845
rfingers 7.12502
rthumb -2.82559 -412.046
lclavicle 8.30423e-014 -4.17448e-015
lhumerus -65.2275 -20.0119 99.0354
lradius 71.5204
lwrist 23.1327
lhand -19.9 6.16359
lfingers 7.12502
lthumb 6.43639 36.0458
rfemur 3.1478 -7.13022 15.9891
rtibia 30.7328
rfoot -5.98791 -27.8432
rtoes -43.6157
lfemur -54.1437 9.33947 -10.8268
ltibia 42.1911
lfoot -9.29193 2.17751
ltoes 6.75818
518
root 3.31242 15.9593 15.4728 -346.127 -5.86795 -5.18012
lowerback 3.53266 3.04884 2.85675
upperback 0.40935 4.17192 0.106832
thorax -1.36028 2.06753 -1.67326
lowerneck -6.35018 -2.1888 3.28081
upperneck 0.565904 -3.18728 0.866218
head 1.19852 -1.56462 -0.371744
rclavicle 7.8023e-015 8.54774e-015
rhumerus -50.8492 5.66842 -94.5993
rradius 45.0037
rwrist 7.48559
rhand -28.9136 -20.8642
rfingers 7.12502
rthumb -2.26823 -410.832
lclavicle 7.8023e-015 8.54774e-015
lhumerus -64.6694 -19.725 98.8321
lradius 71.0979
lwrist 22.8615
lhand -20.6803 5.99789
lfingers 7.12502
lthumb 5.68302 35.9017
rfemur 2.42015 -7.59775 14.9748
rtibia 33.02
rfoot -3.25408 -27.1537
rtoes -43.7004
lfemur -53.6805 8.71841 -11.6218
ltibia 42.5232
lfoot -8.89601 1.95745
ltoes 6.55208
519
root 3.3707 15.9729 15.6635 -346.345 -5.48206 -4.51171
lowerback 3.64203 3.04775 2.48806
upperback 0.355966 4.15729 -0.0830035
thorax -1.48901 2.05955 -1.67111
lowerneck -6.33457 -2.35963 3.08089
upperneck 0.708395 -3.40745 1.08915
head 1.24513 -1.66871 -0.276815
rclavicle -3.98066e-014 -4.17448e-015
rhumerus -50.9804 5.07485 -94.198
rradius 45.3808
rwrist 8.01322
rhand -28.3828 -19.5541
rfingers 7.12502
rthumb -1.7556 -409.527
lclavicle -3.98066e-014 -4.17448e-015
lhumerus -63.8736 -19.3741 98.4809
lradius 70.5676
lwrist 22.8271
lhand -21.168 5.8882
lfingers 7.12502
lthumb 5.21215 35.8041
rfemur 1.52471 -7.99627 13.9349
rtibia 35.5966
rfoot -0.362619 -26.3433
rtoes -43.3655
lfemur -53.2149 8.21204 -12.5334
ltibia 42.88
lfoot -8.49434 1.73761
ltoes 6.72089
520
root 3.426 15.9868 15.8498 -346.613 -5.11135 -3.81222
lowerback 3.82374 3.04731 2.04642
upperback 0.351993 4.13965 -0.275293
thorax -1.61243 2.0513 -1.63338
lowerneck -6.30149 -2.52883 2.87441
upperneck 0.765327 -3.62321 1.31853
head 1.2629 -1.77197 -0.177639
rclavicle -3.73218e-014 -2.5842e-015
rhumerus -50.961 4.35402 -93.7061
rradius 45.676
rwrist 8.48
rhand -27.9232 -18.2802
rfingers 7.12502
rthumb -1.31171 -408.256
lclavicle -3.73218e-014 -2.5842e-015
lhumerus -62.8699 -18.9755 98.0032
lradius 69.958
lwrist 23.063
lhand -21.3427 5.82234
lfingers 7.12502
lthumb 5.04349 35.7423
rfemur 0.483723 -8.29561 12.8848
rtibia 38.4262
rfoot 2.57905 -25.4678
rtoes -42.3837
lfemur -52.7181 7.85601 -13.566
ltibia 43.2479
lfoot -8.12138 1.49637
ltoes 7.0377
521
root 3.4777 16.0004 16.0318 -346.923 -4.76736 -3.09983
lowerback 4.05622 3.04829 1.55066
upperback 0.397461 4.11934 -0.467823
thorax -1.7172 2.04292 -1.56687
lowerneck -6.23312 -2.68845 2.67695
upperneck 0.72885 -3.82356 1.53554
head 1.24561 -1.86952 -0.0818792
rclavicle -1.07344e-014 5.96354e-015
rhumerus -50.8 3.52412 -93.1474
rradius 45.8847
rwrist 8.84432
rhand -27.5806 -17.1564
rfingers 7.12502
rthumb -0.980889 -407.134
lclavicle -1.07344e-014 5.96354e-015
lhumerus -61.6873 -18.5401 97.4259
lradius 69.2714
lwrist 23.5453
lhand -21.2358 5.85871
lfingers 7.12502
lthumb 5.14665 35.7762
rfemur -0.69384 -8.48285 11.8521
rtibia 41.4629
rfoot 5.41223 -24.6386
rtoes -40.4479
lfemur -52.17 7.6737 -14.6946
ltibia 43.6156
lfoot -7.85184 1.20935
ltoes 7.28482
522
root 3.52562 16.0136 16.2095 -347.27 -4.45611 -2.38652
lowerback 4.32737 3.04773 1.01635
upperback 0.488445 4.09236 -0.657086
thorax -1.79976 2.03209 -1.4758
lowerneck -6.12196 -2.82917 2.50409
upperneck 0.6078 -3.99626 1.71187
head 1.19379 -1.9557 -0.000393359
rclavicle -4.32357e-015 5.96354e-016
rhumerus -50.5051 2.61142 -92.5509
rradius 45.9976
rwrist 9.06854
rhand -27.3691 -16.3043
rfingers 7.12502
rthumb -0.776588 -406.283
lclavicle -4.32357e-015 5.96354e-016
lhumerus -60.3722 -18.0686 96.7794
lradius 68.5326
lwrist 24.2363
lhand -20.9071 6.00337
lfingers 7.12502
lthumb 5.46401 35.9129
rfemur -2.00091 -8.56593 10.8573
rtibia 44.6553
rfoot 7.96354 -23.9823
rtoes -36.8847
lfemur -51.557 7.65709 -15.8791
ltibia 43.9735
lfoot -7.74412 0.830037
ltoes 7.60871
523
root 3.57027 16.0263 16.3833 -347.639 -4.17705 -1.69118
lowerback 4.62536 3.04385 0.478686
upperback 0.612809 4.05766 -0.842275
thorax -1.86339 2.01766 -1.37845
lowerneck -5.96484 -2.94669 2.35674
upperneck 0.419138 -4.1358 1.84127
head 1.11198 -2.02759 0.0648697
rclavicle 4.47266e-016 7.45443e-015
rhumerus -50.091 1.6207 -91.937
rradius 46.0068
rwrist 9.12909
rhand -27.2953 -15.7823
rfingers 7.12502
rthumb -0.705254 -405.761
lclavicle 4.47266e-016 7.45443e-015
lhumerus -58.9717 -17.5789 96.0977
lradius 67.7555
lwrist 25.0804
lhand -20.4575 6.25454
lfingers 7.12502
lthumb 5.89815 36.1524
rfemur -3.43506 -8.56712 9.92464
rtibia 47.9449
rfoot 10.0955 -23.5638
rtoes -30.8379
lfemur -50.8886 7.78251 -17.0732
ltibia 44.3201
lfoot -7.81388 0.366128
ltoes 8.04976
524
root 3.61234 16.0385 16.553 -348.018 -3.92113 -1.03225
lowerback 4.93302 3.02906 -0.0377998
upperback 0.765016 4.00669 -1.01108
thorax -1.90335 1.99502 -1.27441
lowerneck -5.77231 -3.03467 2.23
upperneck 0.183988 -4.23407 1.90689
head 1.00834 -2.08094 0.109408
rclavicle 7.2954e-014 -1.32192e-014
rhumerus -49.5537 0.571199 -91.3113
rradius 45.8991
rwrist 9.0358
rhand -27.3602 -15.6381
rfingers 7.12502
rthumb -0.767948 -405.616
lclavicle 7.2954e-014 -1.32192e-014
lhumerus -57.5132 -17.0622 95.4126
lradius 66.9507
lwrist 26.0191
lhand -19.9807 6.59076
lfingers 7.12502
lthumb 6.3584 36.4753
rfemur -4.99585 -8.51036 9.08104
rtibia 51.2703
rfoot 11.827 -23.2762
rtoes -21.5989
lfemur -50.1852 8.01745 -18.2351
ltibia 44.6577
lfoot -8.05826 -0.126236
ltoes 8.47814
525
root 3.65239 16.05 16.7182 -348.387 -3.66798 -0.418511
lowerback 5.2488 2.99844 -0.506534
upperback 0.927555 3.93461 -1.1651
thorax -1.9346 1.96133 -1.18009
lowerneck -5.54765 -3.09542 2.12429
upperneck -0.0811358 -4.29521 1.91466
head 0.888751 -2.11719 0.134686
rclavicle 1.99779e-014 -1.30204e-014
rhumerus -48.9106 -0.558831 -90.6808
rradius 45.677
rwrist 8.81747
rhand -27.5372 -15.8773
rfingers 7.12502
rthumb -0.938944 -405.855
lclavicle 1.99779e-014 -1.30204e-014
lhumerus -56.0304 -16.5403 94.7468
lradius 66.1342
lwrist 26.9919
lhand -19.5688 7.01138
lfingers 7.12502
lthumb 6.75605 36.8836
rfemur -6.68468 -8.42234 8.3443
rtibia 54.5745
rfoot 13.2939 -22.8368
rtoes -9.6266
lfemur -49.4783 8.30793 -19.3331
ltibia 44.9923
lfoot -8.46777 -0.593998
ltoes 8.79376
526
root 3.69071 16.0605 16.8788 -348.735 -3.39894 0.146299
lowerback 5.56626 2.94541 -0.918423
upperback 1.09666 3.83379 -1.30212
thorax -1.9568 1.91273 -1.09726
lowerneck -5.31934 -3.13166 2.03029
upperneck -0.356098 -4.32421 1.87879
head 0.76497 -2.13792 0.145711
rclavicle -1.12562e-014 1.43125e-014
rhumerus -48.1682 -1.77179 -90.0539
rradius 45.3483
rwrist 8.50582
rhand -27.8494 -16.4622
rfingers 7.12502
rthumb -1.24047 -406.438
lclavicle -1.12562e-014 1.43125e-014
lhumerus -54.5281 -16.0294 94.1159
lradius 65.3051
lwrist 27.9608
lhand -19.3023 7.48493
lfingers 7.12502
lthumb 7.01333 37.3487
rfemur -8.48943 -8.33133 7.72504
rtibia 57.8066
rfoot 14.6929 -21.9296
rtoes 2.81662
lfemur -48.7841 8.59695 -20.3435
ltibia 45.3281
lfoot -9.01401 -1.00518
ltoes 8.95234
